<svg width="40" height="40" viewBox="0 0 40 40" fill="none" xmlns="http://www.w3.org/2000/svg">
<path d="M18 17C18 16.7348 18.1054 16.4804 18.2929 16.2929C18.4804 16.1054 18.7348 16 19 16H26C26.2652 16 26.5196 16.1054 26.7071 16.2929C26.8946 16.4804 27 16.7348 27 17C27 17.2652 26.8946 17.5196 26.7071 17.7071C26.5196 17.8946 26.2652 18 26 18H19C18.7348 18 18.4804 17.8946 18.2929 17.7071C18.1054 17.5196 18 17.2652 18 17ZM18 23C18 22.7348 18.1054 22.4804 18.2929 22.2929C18.4804 22.1054 18.7348 22 19 22H26C26.2652 22 26.5196 22.1054 26.7071 22.2929C26.8946 22.4804 27 22.7348 27 23C27 23.2652 26.8946 23.5196 26.7071 23.7071C26.5196 23.8946 26.2652 24 26 24H19C18.7348 24 18.4804 23.8946 18.2929 23.7071C18.1054 23.5196 18 23.2652 18 23ZM18 29C18 28.7348 18.1054 28.4804 18.2929 28.2929C18.4804 28.1054 18.7348 28 19 28H26C26.2652 28 26.5196 28.1054 26.7071 28.2929C26.8946 28.4804 27 28.7348 27 29C27 29.2652 26.8946 29.5196 26.7071 29.7071C26.5196 29.8946 26.2652 30 26 30H19C18.7348 30 18.4804 29.8946 18.2929 29.7071C18.1054 29.5196 18 29.2652 18 29ZM16 17C16 17.3978 15.842 17.7794 15.5607 18.0607C15.2794 18.342 14.8978 18.5 14.5 18.5C14.1022 18.5 13.7206 18.342 13.4393 18.0607C13.158 17.7794 13 17.3978 13 17C13 16.6022 13.158 16.2206 13.4393 15.9393C13.7206 15.658 14.1022 15.5 14.5 15.5C14.8978 15.5 15.2794 15.658 15.5607 15.9393C15.842 16.2206 16 16.6022 16 17ZM16 23C16 23.3978 15.842 23.7794 15.5607 24.0607C15.2794 24.342 14.8978 24.5 14.5 24.5C14.1022 24.5 13.7206 24.342 13.4393 24.0607C13.158 23.7794 13 23.3978 13 23C13 22.6022 13.158 22.2206 13.4393 21.9393C13.7206 21.658 14.1022 21.5 14.5 21.5C14.8978 21.5 15.2794 21.658 15.5607 21.9393C15.842 22.2206 16 22.6022 16 23ZM14.5 30.5C14.8978 30.5 15.2794 30.342 15.5607 30.0607C15.842 29.7794 16 29.3978 16 29C16 28.6022 15.842 28.2206 15.5607 27.9393C15.2794 27.658 14.8978 27.5 14.5 27.5C14.1022 27.5 13.7206 27.658 13.4393 27.9393C13.158 28.2206 13 28.6022 13 29C13 29.3978 13.158 29.7794 13.4393 30.0607C13.7206 30.342 14.1022 30.5 14.5 30.5ZM14.17 6C14.3769 5.41484 14.7602 4.90826 15.267 4.55006C15.7739 4.19186 16.3793 3.99968 17 4H23C23.6207 3.99968 24.2261 4.19186 24.733 4.55006C25.2398 4.90826 25.6231 5.41484 25.83 6H29C29.7956 6 30.5587 6.31607 31.1213 6.87868C31.6839 7.44129 32 8.20435 32 9V33C32 33.7956 31.6839 34.5587 31.1213 35.1213C30.5587 35.6839 29.7956 36 29 36H11C10.2044 36 9.44129 35.6839 8.87868 35.1213C8.31607 34.5587 8 33.7956 8 33V9C8 8.20435 8.31607 7.44129 8.87868 6.87868C9.44129 6.31607 10.2044 6 11 6H14.17ZM17 6C16.7348 6 16.4804 6.10536 16.2929 6.29289C16.1054 6.48043 16 6.73478 16 7C16 7.26522 16.1054 7.51957 16.2929 7.70711C16.4804 7.89464 16.7348 8 17 8H23C23.2652 8 23.5196 7.89464 23.7071 7.70711C23.8946 7.51957 24 7.26522 24 7C24 6.73478 23.8946 6.48043 23.7071 6.29289C23.5196 6.10536 23.2652 6 23 6H17ZM14.17 8H11C10.7348 8 10.4804 8.10536 10.2929 8.29289C10.1054 8.48043 10 8.73478 10 9V33C10 33.2652 10.1054 33.5196 10.2929 33.7071C10.4804 33.8946 10.7348 34 11 34H29C29.2652 34 29.5196 33.8946 29.7071 33.7071C29.8946 33.5196 30 33.2652 30 33V9C30 8.73478 29.8946 8.48043 29.7071 8.29289C29.5196 8.10536 29.2652 8 29 8H25.83C25.6231 8.58516 25.2398 9.09174 24.733 9.44994C24.2261 9.80814 23.6207 10.0003 23 10H17C16.3793 10.0003 15.7739 9.80814 15.267 9.44994C14.7602 9.09174 14.3769 8.58516 14.17 8Z" fill="#2A93D5"/>
</svg>
